<svg width="450" height="450" viewBox="0 0 450 450" fill="none" xmlns="http://www.w3.org/2000/svg">
<path d="M130.512 130.512C132.257 128.765 134.329 127.379 136.611 126.433C138.892 125.487 141.337 125 143.806 125C146.276 125 148.721 125.487 151.002 126.433C153.283 127.379 155.356 128.765 157.101 130.512L225.327 198.714L293.554 130.512C295.3 128.766 297.372 127.382 299.653 126.437C301.934 125.492 304.379 125.006 306.848 125.006C309.317 125.006 311.762 125.492 314.043 126.437C316.324 127.382 318.396 128.766 320.142 130.512C321.888 132.258 323.273 134.331 324.218 136.612C325.162 138.893 325.649 141.337 325.649 143.806C325.649 146.275 325.162 148.72 324.218 151.001C323.273 153.282 321.888 155.355 320.142 157.101L251.941 225.327L320.142 293.554C323.668 297.08 325.649 301.862 325.649 306.848C325.649 311.834 323.668 316.616 320.142 320.142C316.616 323.668 311.834 325.649 306.848 325.649C301.862 325.649 297.08 323.668 293.554 320.142L225.327 251.941L157.101 320.142C153.575 323.668 148.793 325.649 143.806 325.649C138.82 325.649 134.038 323.668 130.512 320.142C126.986 316.616 125.006 311.834 125.006 306.848C125.006 301.862 126.986 297.08 130.512 293.554L198.714 225.327L130.512 157.101C128.765 155.356 127.379 153.283 126.433 151.002C125.487 148.721 125 146.276 125 143.806C125 141.337 125.487 138.892 126.433 136.611C127.379 134.329 128.765 132.257 130.512 130.512Z" fill="black"/>
<circle cx="225" cy="225" r="210" stroke="black" stroke-width="30"/>
</svg>
