<svg width="60" height="60" viewBox="0 0 60 60" fill="none" xmlns="http://www.w3.org/2000/svg">
<path d="M32.5859 35.0156C32.5902 36.3964 31.4744 37.5191 30.0937 37.5234C28.7132 37.5279 27.5902 36.4119 27.5859 35.0314L32.5859 35.0156Z" fill="white"/>
<path d="M24.2966 16.8089L27.5187 13.5666L27.5859 35.0311L32.5859 35.0153L32.5187 13.551L35.7609 16.773C36.7402 17.7462 38.3232 17.7413 39.2964 16.7619C40.2697 15.7826 40.2647 14.1997 39.2854 13.2264L29.9887 3.98779L20.75 13.2845L24.2966 16.8089Z" fill="white"/>
<path d="M20.7502 13.2847C19.7769 14.264 19.7818 15.847 20.7612 16.8202C21.7406 17.7935 23.3235 17.7885 24.2968 16.8091L20.7502 13.2847Z" fill="white"/>
<path d="M10 30C10 27.2385 12.2386 25 15 25C16.3807 25 17.5 23.8807 17.5 22.5C17.5 21.1193 16.3807 20 15 20C9.47715 20 5 24.4771 5 30V45C5 50.5228 9.47715 55 15 55H42.5C49.4035 55 55 49.4035 55 42.5V30C55 24.4771 50.5228 20 45 20C43.6193 20 42.5 21.1193 42.5 22.5C42.5 23.8807 43.6193 25 45 25C47.7615 25 50 27.2385 50 30V42.5C50 46.6423 46.6423 50 42.5 50H15C12.2386 50 10 47.7615 10 45V30Z" fill="white"/>
</svg>
